<svg xmlns="http://www.w3.org/2000/svg" viewBox="0 0 24 24" fill="none">
  <path d="M12 3c-4 0-7 1.5-7 3.5v11C5 19.5 8 21 12 21s7-1.5 7-3.5v-11C19 4.5 16 3 12 3z" stroke="#FF9900" stroke-width="1.5"/>
  <path d="M5 6.5c0 2 3 3.5 7 3.5s7-1.5 7-3.5" stroke="#FF9900" stroke-width="1.25"/>
  <path d="M5 12c0 2 3 3.5 7 3.5s7-1.5 7-3.5" stroke="#FF9900" stroke-width="1.25" stroke-dasharray="2 1.5"/>
  <path d="M8 9l2 2-2 2M16 9l-2 2 2 2" stroke="#FF9900" stroke-width="1" stroke-linecap="round" stroke-linejoin="round" opacity="0.6"/>
</svg>
